<svg width="30" height="30" viewBox="0 0 24 24" fill="none"
    xmlns="http://www.w3.org/2000/svg">
    <circle cx="12" cy="12" r="12" fill="#fff"></circle>
    <path d="m18.487 5.4-5.625 4.162 1.046-2.453 4.58-1.709Z" fill="#E17726" stroke="#E17726" stroke-width=".25" stroke-linecap="round" stroke-linejoin="round"></path>
    <path d="m5.512 5.4 5.576 4.201-.996-2.492L5.512 5.4Zm10.95 9.65-1.496 2.287 3.205.883.918-3.12-2.627-.05Zm-11.545.05.912 3.12 3.2-.883-1.492-2.286-2.62.05Z" fill="#E27625" stroke="#E27625" stroke-width=".25" stroke-linecap="round" stroke-linejoin="round"></path>
    <path d="m8.856 11.189-.89 1.343 3.171.144-.105-3.413-2.176 1.926Zm6.287-.001-2.209-1.964-.072 3.452 3.172-.145-.89-1.343Zm-6.114 6.149 1.92-.927-1.653-1.287-.267 2.214Zm4.023-.927 1.914.927-.262-2.214-1.652 1.287Z" fill="#E27625" stroke="#E27625" stroke-width=".25" stroke-linecap="round" stroke-linejoin="round"></path>
    <path d="m14.966 17.338-1.914-.927.155 1.243-.016.527 1.775-.843Zm-5.937 0 1.78.843-.01-.527.15-1.243-1.92.927Z" fill="#D5BFB2" stroke="#D5BFB2" stroke-width=".25" stroke-linecap="round" stroke-linejoin="round"></path>
    <path d="m10.843 14.301-1.592-.466 1.124-.516.468.982Zm2.314 0 .468-.982 1.13.516-1.598.466Z" fill="#233447" stroke="#233447" stroke-width=".25" stroke-linecap="round" stroke-linejoin="round"></path>
    <path d="m9.029 17.337.278-2.286-1.77.05 1.492 2.236Zm5.664-2.287.273 2.287 1.496-2.236-1.769-.05Zm1.341-2.519-3.172.144.295 1.627.467-.983 1.13.516 1.28-1.304Zm-6.783 1.304 1.124-.516.467.983.295-1.627-3.171-.144 1.285 1.304Z" fill="#CC6228" stroke="#CC6228" stroke-width=".25" stroke-linecap="round" stroke-linejoin="round"></path>
    <path d="m7.966 12.531 1.33 2.592-.045-1.288-1.285-1.304Zm6.788 1.304-.05 1.288 1.33-2.592-1.28 1.304Zm-3.616-1.16-.295 1.626.373 1.92.083-2.53-.161-1.016Zm1.724 0-.156 1.01.078 2.536.373-1.92-.295-1.626Z" fill="#E27525" stroke="#E27525" stroke-width=".25" stroke-linecap="round" stroke-linejoin="round"></path>
    <path d="m13.158 14.302-.373 1.92.267.189 1.652-1.288.05-1.287-1.596.466Zm-3.907-.466.045 1.287 1.652 1.288.268-.189-.373-1.92-1.592-.466Z" fill="#F5841F" stroke="#F5841F" stroke-width=".25" stroke-linecap="round" stroke-linejoin="round"></path>
    <path d="m13.19 18.181.017-.527-.144-.122h-2.126l-.139.122.011.527-1.78-.843.623.51 1.263.872h2.164l1.269-.872.618-.51-1.775.843Z" fill="#C0AC9D" stroke="#C0AC9D" stroke-width=".25" stroke-linecap="round" stroke-linejoin="round"></path>
    <path d="m13.052 16.411-.267-.189h-1.569l-.267.19-.15 1.242.139-.122h2.125l.145.122-.156-1.243Z" fill="#161616" stroke="#161616" stroke-width=".25" stroke-linecap="round" stroke-linejoin="round"></path>
    <path d="m18.727 9.834.473-2.297-.712-2.137-5.436 4.024 2.092 1.764 2.954.86.651-.76-.283-.205.45-.41-.345-.267.451-.344-.295-.228ZM4.8 7.537l.479 2.297-.306.228.456.344-.345.266.45.411-.283.205.65.76 2.955-.86 2.092-1.764L5.512 5.4 4.8 7.537Z" fill="#763E1A" stroke="#763E1A" stroke-width=".25" stroke-linecap="round" stroke-linejoin="round"></path>
    <path d="m18.098 12.049-2.955-.86.89 1.343-1.33 2.591 1.759-.022h2.626l-.99-3.052Zm-9.242-.86-2.954.86-.985 3.052h2.62l1.759.022-1.33-2.591.89-1.343Zm4.006 1.487.19-3.252.856-2.314h-3.817l.857 2.314.19 3.252.071 1.021.006 2.526h1.57l.005-2.526.072-1.02Z" fill="#F5841F" stroke="#F5841F" stroke-width=".25" stroke-linecap="round" stroke-linejoin="round"></path>
</svg>