<svg width="30" height="30" viewBox="0 0 24 24" fill="none"
    xmlns="http://www.w3.org/2000/svg">
    <circle cx="12" cy="12" r="12" fill="#fff"></circle>
    <path d="M8.102 9.441a5.449 5.449 0 0 1 7.796 0l.259.264a.284.284 0 0 1 0 .396l-.887.9a.136.136 0 0 1-.194 0l-.357-.362a3.801 3.801 0 0 0-5.438 0l-.382.388a.136.136 0 0 1-.195 0l-.886-.9a.283.283 0 0 1 0-.397l.284-.289Zm9.628 1.863.79.802a.283.283 0 0 1 0 .396l-3.557 3.616a.272.272 0 0 1-.39 0l-2.524-2.566a.068.068 0 0 0-.098 0l-2.524 2.566a.272.272 0 0 1-.39 0l-3.556-3.616a.283.283 0 0 1 0-.396l.788-.802a.272.272 0 0 1 .39 0l2.524 2.566c.027.028.07.028.098 0l2.524-2.566a.272.272 0 0 1 .39 0l2.524 2.566c.027.028.07.028.097 0l2.525-2.566a.272.272 0 0 1 .39 0Z" fill="#006FFF"></path>
</svg>